<svg xmlns="http://www.w3.org/2000/svg" viewBox="0 0 420 260" fill="none">
  <g stroke="#252421" stroke-width="3" stroke-linecap="round" stroke-linejoin="round">
    <path d="M82 72 170 54l68 59 84-37"/>
    <path d="m170 54 2 103 66-44 55 76"/>
    <path d="m82 72 90 85-75 49"/>
    <path d="M73 72c0-7 5-12 12-12 8 0 13 5 13 12 0 8-5 13-13 13-7 0-12-5-12-13Z"/>
    <path d="M159 54c0-7 5-12 12-12s12 5 12 12-5 12-12 12-12-5-12-12Z"/>
    <path d="M226 113c0-7 5-12 12-12s12 5 12 12-5 12-12 12-12-5-12-12Z"/>
    <path d="M282 190c0-7 5-12 12-12s12 5 12 12-5 12-12 12-12-5-12-12Z"/>
    <path d="m315 204 39-74 15 8-42 72-20 14 8-20Z"/>
    <path d="m354 130 7-12 15 9-7 11"/>
  </g>
</svg>
